<?xml version="1.0" encoding="UTF-8" standalone="no"?>
<svg
   xmlns:dc="http://purl.org/dc/elements/1.1/"
   xmlns:cc="http://creativecommons.org/ns#"
   xmlns:rdf="http://www.w3.org/1999/02/22-rdf-syntax-ns#"
   xmlns:svg="http://www.w3.org/2000/svg"
   xmlns="http://www.w3.org/2000/svg"
   xmlns:sodipodi="http://sodipodi.sourceforge.net/DTD/sodipodi-0.dtd"
   xmlns:inkscape="http://www.inkscape.org/namespaces/inkscape"
   id="Layer_1"
   data-name="Layer 1"
   viewBox="0 0 773.73285 200.16"
   version="1.1"
   sodipodi:docname="logo.svg"
   inkscape:version="0.92.4 5da689c313, 2019-01-14"
   width="773.73285"
   height="200.16"
   inkscape:export-filename="/home/sumner/projects/sublime-music/docs/logo/logo.png"
   inkscape:export-xdpi="99.260002"
   inkscape:export-ydpi="99.260002">
  <metadata
     id="metadata37">
    <rdf:RDF>
      <cc:Work
         rdf:about="">
        <dc:format>image/svg+xml</dc:format>
        <dc:type
           rdf:resource="http://purl.org/dc/dcmitype/StillImage" />
        <dc:title>Logo 1</dc:title>
      </cc:Work>
    </rdf:RDF>
  </metadata>
  <sodipodi:namedview
     pagecolor="#ffffff"
     bordercolor="#666666"
     borderopacity="1"
     objecttolerance="10"
     gridtolerance="10"
     guidetolerance="10"
     inkscape:pageopacity="0"
     inkscape:pageshadow="2"
     inkscape:window-width="2548"
     inkscape:window-height="1344"
     id="namedview35"
     showgrid="false"
     inkscape:zoom="0.472"
     inkscape:cx="-956.01416"
     inkscape:cy="-62.368638"
     inkscape:window-x="6"
     inkscape:window-y="90"
     inkscape:window-maximized="0"
     inkscape:current-layer="Layer_1"
     fit-margin-top="0"
     fit-margin-left="0"
     fit-margin-right="0"
     fit-margin-bottom="0" />
  <defs
     id="defs4">
    <style
       id="style2">.cls-1{fill:#2980b9;}.cls-2{fill:#bcbcbc;}.cls-3{fill:#1c1a19;}</style>
  </defs>
  <title
     id="title6">Logo 1</title>
  <path
     class="cls-1"
     d="M 119.85,32.88 H 60 A 53.74,53.74 0 0 0 6.26,86.61 v 59.81 A 53.74,53.74 0 0 0 60,200.16 h 59.85 a 53.73,53.73 0 0 0 53.73,-53.74 V 86.61 A 53.73,53.73 0 0 0 119.85,32.88 Z M 68.76,91.63 a 11.75,11.75 0 0 0 1,4.92 c 7.59,16.61 62.77,8.37 61.8,45.33 -1.1,39.94 -59,40.88 -80.65,23 C 46.26,166.44 0,189.52 0,189.52 c 0,0 62.85,-41.44 62.7,-41.15 12.89,8.8 46.06,15.41 48.42,-6.92 -1.79,-20.37 -52.13,-12.2 -61.36,-39.81 q -0.15,-0.42 -0.27,-0.84 l -0.09,-0.3 q -0.19,-0.69 -0.36,-1.41 v 0 a 31.34,31.34 0 0 1 -0.72,-7.86 c 1.1,-39.94 59,-40.88 80.65,-23 4.65,-1.57 51.53,-24.13 51.53,-24.13 0,0 -63.47,40.93 -63.32,40.64 C 104.25,75.9 69.9,69.21 68.72,91.63 Z m 46.47,5.78 a 5.09,5.09 0 1 1 -5.31,-4.87 5.11,5.11 0 0 1 5.27,4.87 z m -12.55,-3.83 a 5.1,5.1 0 1 1 -5.32,-4.87 5.1,5.1 0 0 1 5.28,4.87 z M 90.12,89.75 a 5.1,5.1 0 1 1 -5.31,-4.87 5.1,5.1 0 0 1 5.27,4.87 z m -24.16,47.46 a 5.1,5.1 0 1 1 5.36,4.83 5.1,5.1 0 0 1 -5.4,-4.83 z m 12.59,3.71 a 5.1,5.1 0 1 1 5.36,4.83 5.1,5.1 0 0 1 -5.4,-4.83 z m 12.59,3.71 a 5.1,5.1 0 1 1 5.36,4.83 5.11,5.11 0 0 1 -5.4,-4.83 z"
     id="path8"
     style="fill:#ff6801;fill-opacity:1"
     inkscape:export-xdpi="160"
     inkscape:export-ydpi="160"
     inkscape:connector-curvature="0" />
  <path
     class="cls-2"
     d="m 208.75,171.2 v 18.28 h -9.34 V 148.6 l 18.68,18.68 18.68,-18.68 v 40.88 h -9.34 V 171.2 l -9.34,9.35 z"
     id="path10"
     inkscape:connector-curvature="0"
     style="fill:#bcbcbc"
     inkscape:export-xdpi="160"
     inkscape:export-ydpi="160" />
  <path
     class="cls-2"
     d="m 265.80423,158.34 h -3.12 V 149 h 12.46 v 24.91 a 6.23,6.23 0 1 0 12.45,0 v -15.57 h -3.11 V 149 h 12.46 v 24.91 a 15.57,15.57 0 1 1 -31.14,0 z"
     id="path12"
     inkscape:connector-curvature="0"
     style="fill:#bcbcbc"
     inkscape:export-xdpi="160"
     inkscape:export-ydpi="160" />
  <path
     class="cls-2"
     d="m 357.47144,164.565 h -9.34 v -6.23 h -12.46 a 3.14,3.14 0 0 0 -3.11,3.12 3,3 0 0 0 0.92,2.19 3,3 0 0 0 2.19,0.92 h 3.12 a 12.46,12.46 0 1 1 0,24.91 h -15.57 v -9.34 h 15.57 a 3.12,3.12 0 0 0 0,-6.23 h -3.12 a 12.46,12.46 0 1 1 0,-24.91 h 21.8 z"
     id="path14"
     inkscape:connector-curvature="0"
     style="fill:#bcbcbc"
     inkscape:export-xdpi="160"
     inkscape:export-ydpi="160" />
  <path
     class="cls-2"
     d="m 395.8257,189.48 h -9.32999 v -31.14 h -3.11 V 149 h 12.44999 z"
     id="path16"
     inkscape:connector-curvature="0"
     style="fill:#bcbcbc"
     inkscape:export-xdpi="160"
     inkscape:export-ydpi="160" />
  <path
     class="cls-2"
     d="m 456,164.57 h -9.34 v -6.23 h -4.67 a 10.9,10.9 0 1 0 0,21.8 h 7.78 v 9.34 h -7.78 a 20.24,20.24 0 0 1 0,-40.48 h 14 z"
     id="path18"
     inkscape:connector-curvature="0"
     style="fill:#bcbcbc"
     inkscape:export-xdpi="160"
     inkscape:export-ydpi="160" />
  <path
     class="cls-3"
     d="m 214.5,62.14 c 2.46,-12.2 22.17,-9.62 30.85,-4.11 7,5.16 15.48,-5 7.5,-11.49 -16.18,-12.43 -50.55,-8.33 -53.25,14.43 -3.63,33.31 45.16,22.87 46.69,40.23 -1.76,16.65 -26.51,11.73 -36.13,5.16 -4,-3.29 -7.39,-2.23 -10.44,0.82 a 8.68,8.68 0 0 0 1.64,11.49 c 16.19,13.37 59.35,12.67 60.17,-17.12 0.82,-31.2 -50.2,-20.18 -47.03,-39.41 z"
     id="path20"
     inkscape:export-xdpi="160"
     inkscape:export-ydpi="160"
     inkscape:connector-curvature="0"
     style="fill:#1c1a19" />
  <path
     class="cls-3"
     d="m 342,51.08 v 42.46 c 0,24.52 -40,23.11 -40,0 V 51.08 c 0,-11 -15.37,-10.55 -15.37,0 v 42.46 c 0,43.87 70.73,43.87 70.73,0 V 51.08 c 0,-11.23 -15.36,-10.41 -15.36,0 z"
     id="path22"
     inkscape:export-xdpi="160"
     inkscape:export-ydpi="160"
     inkscape:connector-curvature="0"
     style="fill:#1c1a19" />
  <path
     class="cls-3"
     d="M 527.78,109.17 H 495.85 V 50.41 a 7.13,7.13 0 0 0 -6.92,-7.15 7.31,7.31 0 0 0 -7.39,7.15 v 67 a 7.1,7.1 0 0 0 7.39,7.16 h 38.82 c 11.76,-0.03 11.53,-15.4 0.03,-15.4 z"
     id="path24"
     inkscape:export-xdpi="160"
     inkscape:export-ydpi="160"
     inkscape:connector-curvature="0"
     style="fill:#1c1a19" />
  <path
     class="cls-3"
     d="m 561.1,50.41 v 67 c 0,10 15.48,9.74 15.48,0 v -67 c 0,-9.97 -15.48,-9.62 -15.48,0 z"
     id="path26"
     inkscape:export-xdpi="160"
     inkscape:export-ydpi="160"
     inkscape:connector-curvature="0"
     style="fill:#1c1a19" />
  <path
     class="cls-3"
     d="m 672.76,45.25 -26.75,36.12 -25.8,-34.83 c -2,-2.23 -4,-4.22 -7.39,-4.22 a 7.8,7.8 0 0 0 -7,8.09 v 66 c 0,5.16 3.29,8.1 7,8.1 4.22,0 8.45,-2.94 8.45,-8.1 V 73.08 l 17.47,24.63 c 3.87,5.16 9.15,5.16 13.37,0 l 19.47,-24.63 v 43.39 c 0,5.16 3.29,8.1 7.51,8.1 3.75,0 7,-2.94 7,-8.1 v -66 c 0.04,-8.15 -9.46,-10.03 -13.33,-5.22 z"
     id="path28"
     inkscape:export-xdpi="160"
     inkscape:export-ydpi="160"
     inkscape:connector-curvature="0"
     style="fill:#1c1a19" />
  <path
     class="cls-3"
     d="M 765.42,109.17 H 729.64 V 91.58 h 29.56 c 10.44,0 10.44,-15.37 0,-15.37 H 729.64 V 58.62 h 33.78 c 10.56,0 10.79,-15.25 0,-15.25 h -42.1 a 7.09,7.09 0 0 0 -7.28,7.27 v 66.62 a 7.17,7.17 0 0 0 7.28,7.28 h 44.1 c 11.49,0 10.67,-15.37 0,-15.37 z"
     id="path30"
     inkscape:export-xdpi="160"
     inkscape:export-ydpi="160"
     inkscape:connector-curvature="0"
     style="fill:#1c1a19" />
  <path
     class="cls-3"
     d="M 425.39,75.16 H 400.64 V 0 l -42.73,24.83 h 27.37 v 92.43 a 7,7 0 0 0 7.15,7.28 h 36.83 c 17.59,0 26.74,-11 26.74,-24.52 0,-14.94 -14.6,-24.86 -30.61,-24.86 z m 3.87,35.07 H 400.64 V 89.47 h 28.62 c 13.59,0 13.59,20.76 0,20.76 z"
     id="path32"
     inkscape:export-xdpi="160"
     inkscape:export-ydpi="160"
     inkscape:connector-curvature="0"
     style="fill:#1c1a19" />
</svg>
