<svg xmlns="http://www.w3.org/2000/svg" width="24" height="24">  <path fill="#e4e4e4" d="M6.93 2.13v.04h-.08l-1.39.26c-.15.04-.22.2-.22.38l.22 4.39c0 .22.16.37.34.34l1.69-.57c.11-.03.19-.18.15-.37l-.49-4.17c0-.18-.11-.3-.22-.3zm4.65 4.54c-1.35 0-2.25 0-3.49.68l-2.32.82c-.15.04-.23.19-.27.34a3.6 3.6 0 00-.15 2.1 24 24 0 00-1.46.75c-.45-.71-1.87-.64-1.87.37-.08.5-.42 1.2.22 1.47.3.37-.53.75-.68 1.16-.15.37-.22.75-.7.68-.5.18-.72.63-.34 1.04.37.3 1 0 .9.68.07.49.4.97.6 1.35-.45.37-.38.98-.72 1.43-.26.56.15 1.27.83 1.12a4.73 4.73 0 002.02-.75c3 .82 6.03 1.75 9.13 1.92a6.1 6.1 0 01-.86-4.97l-.02-.21c0-1.02.19-1.62.83-2.25.26-.27.64-.43 1.04-.52a6.1 6.1 0 013.97-1.5 6.01 6.01 0 015.43 3.43 5.5 5.5 0 00-.36-1.94c-.52-1.42-1.87-2.51-3.15-3.26-.75-.38-1.72-.41-2.54-.53l-.27-1.27c.11-.68-.64-.6-1.12-.75l-2.03-.34c-.48-.67-1.87-1.05-2.62-1.05zM5.9 13.05c.38.03.57.67.57 1.83 0 1.1-.23 1.77-.75 2.25-.38.34-.6.3-.83-.18-.45-1.05-.22-2.89.41-3.57.23-.22.42-.37.6-.33zm3.72.22c.56 0 .86.6.93 1.77.04 1.3-.26 2.2-.97 2.73-.34.23-.75.34-.97.23-.3-.12-.64-.98-.68-1.7-.11-1.38.41-2.58 1.27-2.92.13-.06.27-.1.42-.1z"/>  <path class="error" fill="#c70e0e" d="M18.2 13.17A5.23 5.23 0 0013 18.4a5.23 5.23 0 005.24 5.24 5.23 5.23 0 005.23-5.24 5.23 5.23 0 00-5.23-5.23 5.23 5.23 0 00-.04 0zM16 14.85l2.24 2.24 2.24-2.24 1.31 1.3-2.24 2.25 2.24 2.25-1.3 1.3-2.25-2.24L16 21.96l-1.31-1.31 2.24-2.25-2.24-2.24z"/></svg>
