<svg xmlns="http://www.w3.org/2000/svg" width="24" height="24">  <path fill="#e4e4e4" d="M6.93 2.17h-.08l-1.39.26c-.15.04-.22.2-.22.38l.22 4.39c0 .22.15.37.34.33l1.69-.56c.11-.04.19-.19.15-.37l-.49-4.17c0-.18-.11-.3-.22-.3zm4.65 4.5c-1.35 0-2.25 0-3.49.68l-2.33.82c-.15.04-.22.19-.26.34a3.6 3.6 0 00-.15 2.1 24 24 0 00-1.46.75c-.45-.71-1.88-.64-1.88.37-.07.5-.4 1.2.23 1.47.3.37-.53.75-.68 1.16-.15.37-.22.75-.7.67-.5.2-.72.64-.35 1.05.38.3 1.02 0 .9.68.08.49.42.97.6 1.35-.45.37-.37.97-.7 1.42-.27.57.14 1.28.82 1.13a4.72 4.72 0 002.02-.75c3.83 1.05 7.69 2.29 11.7 1.87 2.78-.18 5.81-1.23 7.28-3.75.71-1.27.67-2.88.18-4.16-.52-1.42-1.87-2.51-3.15-3.26-.75-.38-1.72-.41-2.55-.53l-.26-1.27c.11-.68-.64-.6-1.12-.75l-2.03-.34c-.49-.67-1.87-1.05-2.62-1.05zM5.9 13.05c.38.03.57.67.57 1.83 0 1.1-.23 1.77-.75 2.25-.38.34-.6.3-.83-.18-.45-1.05-.22-2.9.41-3.57.23-.22.42-.37.6-.33zm3.72.22c.56 0 .86.6.93 1.76.04 1.32-.26 2.22-.97 2.74-.34.23-.75.34-.98.23-.3-.12-.63-.98-.67-1.7-.11-1.38.41-2.58 1.27-2.92a1.13 1.13 0 01.42-.1zm5.13.53c.6 0 1.17.18 1.47.63.3.57.41 1.8.22 2.48a3.41 3.41 0 01-1.16 1.72c-.6.38-1.65.45-2.1.12-.56-.45-.75-1.05-.79-2.1 0-1.02.19-1.62.83-2.25.37-.38.97-.57 1.53-.6z"/></svg>
